<svg height="512" viewBox="0 0 60 60" width="512" xmlns="http://www.w3.org/2000/svg"><g id="Page-1" fill="none" fill-rule="evenodd"><g id="020---Perfume" fill-rule="nonzero" transform="translate(-1)"><path id="Shape" d="m51.87 38.5-11.5 20c-.179341.3106342-.5113152.501424-.87.5h-24.98c-.3586848.001424-.690659-.1893658-.87-.5l-11.52-20c-.17002637-.3116516-.17002637-.6883484 0-1l11.52-20c.179341-.3106342.5113152-.501424.87-.5h24.98c.3586848-.001424.690659.1893658.87.5l11.5 20c.1700264.3116516.1700264.6883484 0 1z" fill="#ef314c"/><path id="Shape" d="m51.87 37.5-11.5-20c-.179341-.3106342-.5113152-.501424-.87-.5l-3-.0000079c.3586848-.0014161.690659.1893737.87.5000079l11.5 20c.1700264.3116516.1700264.6883484 0 1l-11.5 20c-.179341.3106342-.5113152.501424-.87.5000079l3-.0000079c.3586848.001424.690659-.1893658.87-.5l11.5-20c.1700264-.3116516.1700264-.6883484 0-1z" fill="#bb193b"/><path id="Shape" d="m38 12v5h-22v-5c.0032948-1.1032019.8967981-1.9967052 2-2h18c1.1032019.0032948 1.9967052.8967981 2 2z" fill="#ffdc00"/><path id="Shape" d="m36 10h-3c1.1032019.0032948 1.9967052.8967981 2 2v5h3v-5c-.0032948-1.1032019-.8967981-1.9967052-2-2z" fill="#fec108"/><path id="Shape" d="m25 1h4c1.1045695 0 2 .8954305 2 2v7h-8v-7c0-1.1045695.8954305-2 2-2z" fill="#cfd8dc"/><path id="Shape" d="m60 17.57c-.0000001 3.5511909-2.8788091 6.4299998-6.43 6.4299998s-6.4299999-2.8788089-6.43-6.4299998l6.43-6.43c3.5498199.0033078 6.4266922 2.8801801 6.43 6.43z" fill="#607d8b"/><path id="Shape" d="m58.12 13.03c-1.2036837-1.2119379-2.8418894-1.8924233-4.55-1.89l-.5.5c2.5657416 1.0730069 4.1492692 3.6755658 3.9229308 6.4474144-.2263384 2.7718487-2.2111034 5.0830346-4.9169308 5.7255856 2.79458.6683974 5.693147-.600298 7.098077-3.1068103s.9744877-5.6411571-1.054077-7.6761897z" fill="#37474f"/><path id="Shape" d="m53.57 11.14-6.43 6.43-.97-2.93c-.3904339-1.1538346-.0919274-2.4292712.77-3.29l.41-.41c.8607288-.8619274 2.1361654-1.16043386 3.29-.77z" fill="#ffdc00"/><path id="Shape" d="m40.586 44c.2651948-.0000566.5195073-.1054506.707-.293l2.414-2.414c.1875494-.1874927.2929434-.4418052.293-.707v-5.172c-.0000566-.2651948-.1054506-.5195073-.293-.707l-2.414-2.414c-.1874927-.1875494-.4418052-.2929434-.707-.293h-27.172c-.2651948.0000566-.5195073.1054506-.707.293l-2.414 2.414c-.1875494.1874927-.2929434.4418052-.293.707v5.172c.0000566.2651948.1054506.5195073.293.707l2.414 2.414c.1874927.1875494.4418052.2929434.707.293z" fill="#ffe0b2"/><path id="Shape" d="m43.707 34.707-2.414-2.414c-.1874927-.1875494-.4418052-.2929434-.707-.293h-3c.2651948.0000566.5195073.1054506.707.293l2.414 2.414c.1875494.1874927.2929434.4418052.293.707v5.172c-.0000566.2651948-.1054506.5195073-.293.707l-2.414 2.414c-.1874927.1875494-.4418052.2929434-.707.293h3c.2651948-.0000566.5195073-.1054506.707-.293l2.414-2.414c.1875494-.1874927.2929434-.4418052.293-.707v-5.172c-.0000566-.2651948-.1054506-.5195073-.293-.707z" fill="#dfc49c"/><path id="Shape" d="m12.663 28.23c-.3570824-.000366-.6868739-.1911096-.8652566-.5004437s-.1782849-.6903138.0002566-.9995563l3.588-6.23c.1786283-.3093932.5087435-.4999909.866-.5h3.748c.5522847 0 1 .4477153 1 1s-.4477153 1-1 1h-3.17l-3.3 5.729c-.1785523.3100878-.5091798.5011424-.867.501z" fill="#f5f5f5"/><circle id="Oval" cx="24" cy="21" fill="#f5f5f5" r="1"/><g fill="#000"><path id="Shape" d="m31 53h-8c-.5522847 0-1 .4477153-1 1s.4477153 1 1 1h8c.5522847 0 1-.4477153 1-1s-.4477153-1-1-1z"/><path id="Shape" d="m13 40c0 .5522847.4477153 1 1 1h26c.5522847 0 1-.4477153 1-1s-.4477153-1-1-1h-26c-.5522847 0-1 .4477153-1 1z"/><path id="Shape" d="m22 37h10c.5522847 0 1-.4477153 1-1s-.4477153-1-1-1h-10c-.5522847 0-1 .4477153-1 1s.4477153 1 1 1z"/><path id="Shape" d="m58.824 12.32c-1.3436228-1.3491434-3.1573697-2.1257468-5.061-2.167l-2.811-.937c-1.2966471-.43849531-2.7258292-.21436848-3.826.6-4.5725409-2.81207849-9.7678313-4.45351-15.126-4.779v-2.037c0-1.65685425-1.3431458-3-3-3h-4c-1.6568542 0-3 1.34314575-3 3v6h-4c-1.6568542 0-3 1.3431458-3 3v4h-.478c-.7165179-.0006278-1.3791363.3804063-1.739 1l-11.517 20c-.35695624.6189808-.35657504 1.3813765.001 2l11.515 20c.3600429.619903 1.0231251 1.0009848 1.74 1h24.978c.7153917-.0006461 1.3765247-.3814831 1.736-1l11.5-20c.3530472-.6160006.3530472-1.3729994 0-1.989l-11.5-20c-.3565325-.6229011-1.0182857-1.0082885-1.736-1.011h-.5v-4c0-1.6568542-1.3431458-3-3-3h-4v-1.954c4.8394906.32571558 9.5358054 1.77837474 13.714 4.242-.7273474 1.0767628-.9121592 2.4306944-.5 3.663l.936 2.809c.084438 3.3365977 2.3848516 6.2068042 5.6229981 7.0157669 3.2381466.8089628 6.6181248-.6421524 8.2618235-3.5470223 1.6436987-2.9048698 1.1471146-6.5495086-1.2138216-8.9087446zm-19.324 5.68.867-.5-.867.5 11.5 20-11.5 20h-24.98l-11.52-20 11.522-20zm-2.5-6v4h-3v-1c0-.5522847-.4477153-1-1-1s-1 .4477153-1 1v1h-4v-1c0-.5522847-.4477153-1-1-1s-1 .4477153-1 1v1h-4v-1c0-.5522847-.4477153-1-1-1s-1 .4477153-1 1v1h-3v-4c0-.5522847.4477153-1 1-1h18c.5522847 0 1 .4477153 1 1zm-13-3v-3h2c.5522847 0 1-.44771525 1-1s-.4477153-1-1-1h-2v-1c0-.55228475.4477153-1 1-1h4c.5522847 0 1 .44771525 1 1v6zm26.319 2.114 1.4.467-4.141 4.14-.467-1.4c-.2683063-.7952417-.0607747-1.6738569.535-2.265l.406-.406c.5913153-.5969066 1.4709792-.8048906 2.267-.536zm7.091 10.3c-1.5009465 1.5013805-3.7394191 1.9899264-5.7294325 1.2504467-1.9900135-.7394797-3.3662703-2.5712422-3.5225675-4.6884467l5.814-5.814c2.1154727.1576317 3.9452649 1.5331902 4.6844582 3.521573.7391933 1.9883827.2523154 4.2251774-1.2464582 5.726427z"/><path id="Shape" d="m12 31.586-2.414 2.414c-.37641214.3741062-.58743707.8833028-.586 1.414v5.172c-.00143707.5306972.20958786 1.0398938.586 1.414l2.414 2.414c.3756652.3740806.8838501.5846863 1.414.586h27.172c.5301499-.0013137 1.0383348-.2119194 1.414-.586l2.414-2.414c.3764121-.3741062.5874371-.8833028.586-1.414v-5.172c.0014371-.5306972-.2095879-1.0398938-.586-1.414l-2.414-2.414c-.3756652-.3740806-.8838501-.5846863-1.414-.586h-27.172c-.5301499.0013137-1.0383348.2119194-1.414.586zm31 3.828v5.172l-2.414 2.414h-27.172l-2.414-2.414v-5.172l2.414-2.414h27.172z"/><path id="Shape" d="m14 6c0 .55228475.4477153 1 1 1h3c.5522847 0 1-.44771525 1-1s-.4477153-1-1-1h-3c-.5522847 0-1 .44771525-1 1z"/><path id="Shape" d="m17.553 2.9c.4942948.24687127 1.0951287.04629484 1.342-.44800001.2468713-.49429484.0462948-1.0951287-.448-1.34199999l-2-1c-.4942949-.24687128-1.0951287-.04629485-1.342.448s-.0462949 1.09512872.448 1.342z"/></g></g></g></svg>